<svg id="visual" viewBox="0 0 900 600" width="900" height="600" xmlns="http://www.w3.org/2000/svg" xmlns:xlink="http://www.w3.org/1999/xlink" version="1.1"><rect x="0" y="0" width="900" height="600" fill="#ffffff"></rect><g transform="translate(903.2032207620405 629.329903677027)"><path d="M145.3 -211.3C182.1 -173.3 201.4 -122.5 214.2 -72.2C227 -21.8 233.3 28 211.2 60.2C189.2 92.4 138.7 106.9 98.7 123.2C58.8 139.6 29.4 157.8 -13.9 176.9C-57.2 196.1 -114.4 216.2 -152 199C-189.6 181.9 -207.5 127.6 -220.1 74.8C-232.7 22 -240 -29.2 -218.8 -63.9C-197.6 -98.6 -147.9 -116.9 -106.7 -153.5C-65.4 -190.1 -32.7 -245 10.8 -259.9C54.3 -274.7 108.5 -249.4 145.3 -211.3" fill="#f9921c"></path></g></svg>